<svg xmlns="http://www.w3.org/2000/svg" viewBox="0 0 1200 610"><defs><linearGradient id="d" x1="0" y1="0" x2="1" y2="1"><stop stop-color="#071627"/><stop offset="1" stop-color="#1b3148"/></linearGradient></defs><rect width="590" height="610" fill="url(#d)"/><rect x="610" width="590" height="610" fill="#f7fbff"/><g font-family="Arial,'Noto Sans JP',sans-serif"><text x="295" y="65" text-anchor="middle" font-size="24" font-weight="900" fill="white">BEFORE</text><text x="905" y="65" text-anchor="middle" font-size="24" font-weight="900" fill="#0759d9">AFTER</text><text x="295" y="135" text-anchor="middle" font-size="44" font-weight="900" fill="white">荷物 8.4kg</text><text x="905" y="135" text-anchor="middle" font-size="44" font-weight="900" fill="#092449">体感重量 <tspan fill="#0759d9">4.7kg</tspan></text><text x="295" y="185" text-anchor="middle" font-size="22" fill="#b9c7d6">気分 ★☆☆☆☆</text><text x="905" y="185" text-anchor="middle" font-size="22" fill="#0759d9">気分 ★★★☆☆</text></g><g transform="translate(190 245)"><circle cx="90" cy="50" r="42" fill="#d5b3a4"/><path d="M40 90q50-40 105 0l25 210H20z" fill="#101a27"/><rect x="115" y="115" width="150" height="180" rx="26" fill="#0b1522"/><path d="M55 100q-50 100 5 190" fill="none" stroke="#111b29" stroke-width="30"/></g><g transform="translate(800 245)"><circle cx="90" cy="50" r="42" fill="#e3c2b2"/><path d="M40 90q50-40 105 0l25 210H20z" fill="#101a27"/><rect x="115" y="105" width="145" height="178" rx="26" fill="#0b1522" stroke="#2587ff" stroke-width="3"/><path d="M55 100q-20 100 25 180" fill="none" stroke="#111b29" stroke-width="30"/></g><g font-family="Arial,'Noto Sans JP',sans-serif"><text x="295" y="565" text-anchor="middle" font-size="18" fill="#b9c7d6">バッグを持つ前から、もう重い。</text><text x="905" y="565" text-anchor="middle" font-size="18" fill="#52667e">月曜日は残る。でも、少し歩ける。</text></g></svg>