<svg xmlns="http://www.w3.org/2000/svg" viewBox="0 0 1200 700"><rect width="1200" height="700" fill="#f6faff"/><g font-family="Arial,'Noto Sans JP',sans-serif"><text x="600" y="62" text-anchor="middle" font-size="18" font-weight="800" fill="#0759d9">DETAILS / GIMMICKS</text><text x="600" y="115" text-anchor="middle" font-size="42" font-weight="900" fill="#092449">細かいギミックまで、未来っぽく。</text></g><g transform="translate(50 165)" font-family="Arial,'Noto Sans JP',sans-serif"><g><rect width="208" height="440" rx="22" fill="white" stroke="#d2e1f2"/><rect x="24" y="28" width="54" height="54" rx="14" fill="#0759d9"/><text x="51" y="63" text-anchor="middle" fill="white" font-size="20" font-weight="900">01</text><text x="24" y="118" font-size="19" font-weight="800" fill="#092449">自動軽量化</text><rect x="45" y="160" width="118" height="150" rx="24" fill="#111b29"/><path d="M28 235h-18M180 235h18" stroke="#2587ff" stroke-width="6"/><text x="104" y="350" text-anchor="middle" font-size="14" fill="#5b6d82">荷重をリアルタイム分散</text></g><g transform="translate(224)"><rect width="208" height="440" rx="22" fill="white" stroke="#d2e1f2"/><rect x="24" y="28" width="54" height="54" rx="14" fill="#0759d9"/><text x="51" y="63" text-anchor="middle" fill="white" font-size="20" font-weight="900">02</text><text x="24" y="118" font-size="19" font-weight="800" fill="#092449">月曜日認識</text><rect x="34" y="170" width="140" height="112" rx="16" fill="#071d39"/><text x="104" y="205" text-anchor="middle" font-size="14" fill="#75b7ff">MONDAY</text><text x="104" y="250" text-anchor="middle" font-size="34" fill="white" font-weight="900">ON</text><text x="104" y="350" text-anchor="middle" font-size="14" fill="#5b6d82">祝日・代休も判定</text></g><g transform="translate(448)"><rect width="208" height="440" rx="22" fill="white" stroke="#d2e1f2"/><rect x="24" y="28" width="54" height="54" rx="14" fill="#0759d9"/><text x="51" y="63" text-anchor="middle" fill="white" font-size="20" font-weight="900">03</text><text x="24" y="118" font-size="19" font-weight="800" fill="#092449">会社接近検知</text><rect x="34" y="160" width="140" height="140" rx="16" fill="#071d39"/><circle cx="104" cy="230" r="46" fill="none" stroke="#2587ff" stroke-width="4"/><circle cx="104" cy="230" r="12" fill="#2587ff"/><path d="M104 184v92M58 230h92" stroke="#2587ff" stroke-width="2" opacity=".6"/><text x="104" y="350" text-anchor="middle" font-size="14" fill="#5b6d82">半径200mで防御モード</text></g><g transform="translate(672)"><rect width="208" height="440" rx="22" fill="white" stroke="#d2e1f2"/><rect x="24" y="28" width="54" height="54" rx="14" fill="#0759d9"/><text x="51" y="63" text-anchor="middle" fill="white" font-size="20" font-weight="900">04</text><text x="24" y="118" font-size="19" font-weight="800" fill="#092449">帰宅時ブースト</text><path d="M55 270l95-95M110 175h40v40" stroke="#2587ff" stroke-width="9" fill="none"/><circle cx="60" cy="275" r="24" fill="#071d39"/><text x="104" y="350" text-anchor="middle" font-size="14" fill="#5b6d82">帰り道だけ軽さ+20%</text></g><g transform="translate(896)"><rect width="208" height="440" rx="22" fill="white" stroke="#d2e1f2"/><rect x="24" y="28" width="54" height="54" rx="14" fill="#0759d9"/><text x="51" y="63" text-anchor="middle" fill="white" font-size="20" font-weight="900">05</text><text x="24" y="118" font-size="19" font-weight="800" fill="#092449">上司接近通知</text><rect x="50" y="165" width="110" height="125" rx="24" fill="#111b29"/><circle cx="145" cy="180" r="8" fill="#2587ff"/><path d="M35 225q-25 25 0 50M173 225q25 25 0 50" fill="none" stroke="#2587ff" stroke-width="4"/><text x="104" y="350" text-anchor="middle" font-size="14" fill="#5b6d82">肩ベルトが一度だけ震える</text></g></g></svg>