<svg xmlns="http://www.w3.org/2000/svg" viewBox="0 0 1200 750"><defs><linearGradient id="bg" x1="0" y1="0" x2="1" y2="1"><stop stop-color="#1b1533"/><stop offset=".55" stop-color="#51448a"/><stop offset="1" stop-color="#b9afff"/></linearGradient><linearGradient id="pod" x1="0" y1="0" x2="1" y2="1"><stop stop-color="#f5f3ff"/><stop offset="1" stop-color="#9e91dc"/></linearGradient><filter id="sh"><feDropShadow dx="0" dy="28" stdDeviation="24" flood-opacity=".35"/></filter></defs><rect width="1200" height="750" fill="url(#bg)"/><g opacity=".35" fill="#fff"><rect x="70" y="130" width="70" height="280"/><rect x="160" y="80" width="95" height="330"/><rect x="920" y="110" width="95" height="300"/><rect x="1040" y="170" width="70" height="240"/></g><path d="M0 575h1200" stroke="#d6d0ff" stroke-width="14" opacity=".55"/><g filter="url(#sh)"><path d="M250 340c0-65 53-118 118-118h465c65 0 117 53 117 118v145c0 46-37 83-83 83H333c-46 0-83-37-83-83z" fill="url(#pod)" stroke="#221b42" stroke-width="8"/><path d="M325 292h430c65 0 118 53 118 118v36H325c-27 0-49-22-49-49v-56c0-27 22-49 49-49z" fill="#cfc7ff"/><rect x="357" y="338" width="392" height="126" rx="58" fill="#faf9ff"/><circle cx="792" cy="314" r="25" fill="#d8ff3e"/></g><text x="78" y="92" fill="#fff" font-family="Arial" font-size="31" font-weight="700">COMMUTE SLEEP BED</text><text x="80" y="130" fill="#d8d4ff" font-family="Arial" font-size="18">Sleep while the city moves you / 2114</text></svg>